<mxfile host="app.diagrams.net" modified="2023-03-26T04:18:06.425Z" agent="5.0 (Macintosh; Intel Mac OS X 10_15_7) AppleWebKit/537.36 (KHTML, like Gecko) Chrome/111.0.0.0 Safari/537.36" etag="4qhv98nF1NioblCK7ZPV" version="21.0.10" type="github">
  <diagram name="Page-1" id="gypVrYhVjfgFWsSbtT4_">
    <mxGraphModel dx="2358" dy="1240" grid="1" gridSize="10" guides="1" tooltips="1" connect="1" arrows="1" fold="1" page="1" pageScale="1" pageWidth="850" pageHeight="1100" math="0" shadow="0">
      <root>
        <mxCell id="0" />
        <mxCell id="1" parent="0" />
        <mxCell id="UT3TPzIITWsSeXLHkU9y-1" value="HBM0" style="rounded=0;whiteSpace=wrap;html=1;fillColor=#dae8fc;strokeColor=#6c8ebf;" vertex="1" parent="1">
          <mxGeometry x="120" y="320" width="120" height="40" as="geometry" />
        </mxCell>
        <mxCell id="UT3TPzIITWsSeXLHkU9y-5" value="" style="edgeStyle=orthogonalEdgeStyle;rounded=0;orthogonalLoop=1;jettySize=auto;html=1;" edge="1" parent="1" source="UT3TPzIITWsSeXLHkU9y-2" target="UT3TPzIITWsSeXLHkU9y-1">
          <mxGeometry relative="1" as="geometry" />
        </mxCell>
        <mxCell id="UT3TPzIITWsSeXLHkU9y-2" value="HBM1" style="rounded=0;whiteSpace=wrap;html=1;fillColor=#d5e8d4;strokeColor=#82b366;" vertex="1" parent="1">
          <mxGeometry x="320" y="320" width="120" height="40" as="geometry" />
        </mxCell>
        <mxCell id="UT3TPzIITWsSeXLHkU9y-6" value="" style="edgeStyle=orthogonalEdgeStyle;rounded=0;orthogonalLoop=1;jettySize=auto;html=1;" edge="1" parent="1" source="UT3TPzIITWsSeXLHkU9y-3" target="UT3TPzIITWsSeXLHkU9y-1">
          <mxGeometry relative="1" as="geometry" />
        </mxCell>
        <mxCell id="UT3TPzIITWsSeXLHkU9y-3" value="HBM2" style="rounded=0;whiteSpace=wrap;html=1;fillColor=#fff2cc;strokeColor=#d6b656;" vertex="1" parent="1">
          <mxGeometry x="120" y="440" width="120" height="40" as="geometry" />
        </mxCell>
        <mxCell id="UT3TPzIITWsSeXLHkU9y-4" value="HBM3" style="rounded=0;whiteSpace=wrap;html=1;fillColor=#f8cecc;strokeColor=#b85450;" vertex="1" parent="1">
          <mxGeometry x="320" y="440" width="120" height="40" as="geometry" />
        </mxCell>
        <mxCell id="UT3TPzIITWsSeXLHkU9y-7" value="" style="edgeStyle=orthogonalEdgeStyle;rounded=0;orthogonalLoop=1;jettySize=auto;html=1;exitX=0;exitY=0;exitDx=0;exitDy=0;entryX=1;entryY=1;entryDx=0;entryDy=0;" edge="1" parent="1" source="UT3TPzIITWsSeXLHkU9y-4" target="UT3TPzIITWsSeXLHkU9y-1">
          <mxGeometry relative="1" as="geometry">
            <mxPoint x="190" y="450" as="sourcePoint" />
            <mxPoint x="190" y="370" as="targetPoint" />
          </mxGeometry>
        </mxCell>
        <mxCell id="UT3TPzIITWsSeXLHkU9y-18" value="device allreduce" style="text;html=1;strokeColor=none;fillColor=none;align=center;verticalAlign=middle;whiteSpace=wrap;rounded=0;" vertex="1" parent="1">
          <mxGeometry x="240" y="520" width="60" height="30" as="geometry" />
        </mxCell>
        <mxCell id="UT3TPzIITWsSeXLHkU9y-30" value="" style="edgeStyle=orthogonalEdgeStyle;rounded=0;orthogonalLoop=1;jettySize=auto;html=1;" edge="1" parent="1" source="UT3TPzIITWsSeXLHkU9y-32" target="UT3TPzIITWsSeXLHkU9y-34">
          <mxGeometry relative="1" as="geometry" />
        </mxCell>
        <mxCell id="UT3TPzIITWsSeXLHkU9y-31" value="" style="edgeStyle=orthogonalEdgeStyle;rounded=0;orthogonalLoop=1;jettySize=auto;html=1;" edge="1" parent="1" source="UT3TPzIITWsSeXLHkU9y-32" target="UT3TPzIITWsSeXLHkU9y-33">
          <mxGeometry relative="1" as="geometry" />
        </mxCell>
        <mxCell id="UT3TPzIITWsSeXLHkU9y-32" value="HBM0" style="rounded=0;whiteSpace=wrap;html=1;fillColor=#ffff88;strokeColor=#36393d;" vertex="1" parent="1">
          <mxGeometry x="840" y="320" width="120" height="40" as="geometry" />
        </mxCell>
        <mxCell id="UT3TPzIITWsSeXLHkU9y-33" value="HBM1" style="rounded=0;whiteSpace=wrap;html=1;fillColor=#ffff88;strokeColor=#36393d;" vertex="1" parent="1">
          <mxGeometry x="1040" y="320" width="120" height="40" as="geometry" />
        </mxCell>
        <mxCell id="UT3TPzIITWsSeXLHkU9y-34" value="HBM2" style="rounded=0;whiteSpace=wrap;html=1;fillColor=#ffff88;strokeColor=#36393d;" vertex="1" parent="1">
          <mxGeometry x="840" y="440" width="120" height="40" as="geometry" />
        </mxCell>
        <mxCell id="UT3TPzIITWsSeXLHkU9y-35" value="HBM3" style="rounded=0;whiteSpace=wrap;html=1;fillColor=#ffff88;strokeColor=#36393d;" vertex="1" parent="1">
          <mxGeometry x="1040" y="440" width="120" height="40" as="geometry" />
        </mxCell>
        <mxCell id="UT3TPzIITWsSeXLHkU9y-36" value="" style="edgeStyle=orthogonalEdgeStyle;rounded=0;orthogonalLoop=1;jettySize=auto;html=1;exitX=1;exitY=1;exitDx=0;exitDy=0;entryX=0;entryY=0;entryDx=0;entryDy=0;" edge="1" parent="1" source="UT3TPzIITWsSeXLHkU9y-32" target="UT3TPzIITWsSeXLHkU9y-35">
          <mxGeometry relative="1" as="geometry">
            <mxPoint x="690" y="450" as="sourcePoint" />
            <mxPoint x="610" y="370" as="targetPoint" />
          </mxGeometry>
        </mxCell>
        <mxCell id="UT3TPzIITWsSeXLHkU9y-37" value="device&amp;nbsp;&lt;br&gt;bcast" style="text;html=1;strokeColor=none;fillColor=none;align=center;verticalAlign=middle;whiteSpace=wrap;rounded=0;" vertex="1" parent="1">
          <mxGeometry x="970" y="520" width="60" height="30" as="geometry" />
        </mxCell>
        <mxCell id="UT3TPzIITWsSeXLHkU9y-38" value="HBM0" style="rounded=0;whiteSpace=wrap;html=1;fillColor=#ffff88;strokeColor=#36393d;" vertex="1" parent="1">
          <mxGeometry x="480" y="320" width="120" height="40" as="geometry" />
        </mxCell>
        <mxCell id="UT3TPzIITWsSeXLHkU9y-39" value="" style="edgeStyle=orthogonalEdgeStyle;rounded=0;orthogonalLoop=1;jettySize=auto;html=1;" edge="1" parent="1" source="UT3TPzIITWsSeXLHkU9y-40" target="UT3TPzIITWsSeXLHkU9y-38">
          <mxGeometry relative="1" as="geometry" />
        </mxCell>
        <mxCell id="UT3TPzIITWsSeXLHkU9y-40" value="HBM1" style="rounded=0;whiteSpace=wrap;html=1;fillColor=#d5e8d4;strokeColor=#82b366;" vertex="1" parent="1">
          <mxGeometry x="680" y="320" width="120" height="40" as="geometry" />
        </mxCell>
        <mxCell id="UT3TPzIITWsSeXLHkU9y-41" value="" style="edgeStyle=orthogonalEdgeStyle;rounded=0;orthogonalLoop=1;jettySize=auto;html=1;" edge="1" parent="1" source="UT3TPzIITWsSeXLHkU9y-42" target="UT3TPzIITWsSeXLHkU9y-38">
          <mxGeometry relative="1" as="geometry" />
        </mxCell>
        <mxCell id="UT3TPzIITWsSeXLHkU9y-42" value="HBM2" style="rounded=0;whiteSpace=wrap;html=1;fillColor=#fff2cc;strokeColor=#d6b656;" vertex="1" parent="1">
          <mxGeometry x="480" y="440" width="120" height="40" as="geometry" />
        </mxCell>
        <mxCell id="UT3TPzIITWsSeXLHkU9y-43" value="HBM3" style="rounded=0;whiteSpace=wrap;html=1;fillColor=#f8cecc;strokeColor=#b85450;" vertex="1" parent="1">
          <mxGeometry x="680" y="440" width="120" height="40" as="geometry" />
        </mxCell>
        <mxCell id="UT3TPzIITWsSeXLHkU9y-44" value="" style="edgeStyle=orthogonalEdgeStyle;rounded=0;orthogonalLoop=1;jettySize=auto;html=1;exitX=0;exitY=0;exitDx=0;exitDy=0;entryX=1;entryY=1;entryDx=0;entryDy=0;" edge="1" parent="1" source="UT3TPzIITWsSeXLHkU9y-43" target="UT3TPzIITWsSeXLHkU9y-38">
          <mxGeometry relative="1" as="geometry">
            <mxPoint x="550" y="450" as="sourcePoint" />
            <mxPoint x="550" y="370" as="targetPoint" />
          </mxGeometry>
        </mxCell>
        <mxCell id="UT3TPzIITWsSeXLHkU9y-45" value="device allreduce" style="text;html=1;strokeColor=none;fillColor=none;align=center;verticalAlign=middle;whiteSpace=wrap;rounded=0;" vertex="1" parent="1">
          <mxGeometry x="600" y="520" width="60" height="30" as="geometry" />
        </mxCell>
      </root>
    </mxGraphModel>
  </diagram>
</mxfile>
